<svg xmlns="http://www.w3.org/2000/svg" viewBox="0 0 32 32">
  <defs>
    <linearGradient id="brandGrad" x1="0%" y1="0%" x2="100%" y2="100%">
      <stop offset="0%" stop-color="#0284c7"/>
      <stop offset="100%" stop-color="#0f172a"/>
    </linearGradient>
  </defs>
  <rect width="32" height="32" rx="7" fill="url(#brandGrad)"/>
  <!-- Precision Euro Profile Cylinder & Keyway Cross Section -->
  <path d="M16 5 A 6 6 0 0 0 10 11 C 10 13.8 12.2 16.2 13.5 17.5 L 13.5 24.5 A 2.5 2.5 0 0 0 16 27 A 2.5 2.5 0 0 0 18.5 24.5 L 18.5 17.5 C 19.8 16.2 22 13.8 22 11 A 6 6 0 0 0 16 5 Z" fill="#ffffff" fill-opacity="0.95"/>
  <!-- Rotating Core & Paracentric Broach -->
  <circle cx="16" cy="11" r="2.8" fill="#0284c7"/>
  <path d="M15.2 10.2 h1.6 v3.2 h-1.6 Z" fill="#ffffff"/>
  <rect x="14.8" y="19" width="2.4" height="4.5" rx="1.2" fill="#0f172a"/>
</svg>
